<?xml version="1.0" encoding="utf-8"?>
<!-- Generator: Adobe Illustrator 19.1.0, SVG Export Plug-In . SVG Version: 6.00 Build 0)  -->
<svg version="1.0" xmlns="http://www.w3.org/2000/svg" xmlns:xlink="http://www.w3.org/1999/xlink" x="0px" y="0px"
	 viewBox="0 0 61.1 61.6" style="enable-background:new 0 0 61.1 61.6;" xml:space="preserve">
<style type="text/css">
	.st0{display:none;}
	.st1{display:inline;}
	.st2{fill:#76A944;}
	.st3{fill:#7F6E5D;}
	.st4{fill:#B1E97C;}
	.st5{fill:#24AE5F;}
	.st6{fill:none;stroke:#687492;stroke-width:2;stroke-linecap:round;stroke-miterlimit:10;}
	.st7{display:inline;fill:#CB8252;}
	.st8{fill:#556080;}
	.st9{fill:#ECF0F1;}
	.st10{display:inline;fill:#CBB292;}
	.st11{display:inline;fill:#E2C5A6;}
	.st12{fill:#59474E;}
	.st13{fill:#7F5B53;}
	.st14{fill:#AF8066;}
	.st15{fill:none;stroke:#D1D4D1;stroke-width:2;stroke-linecap:round;stroke-linejoin:round;stroke-miterlimit:10;}
	.st16{fill:#FED070;}
	.st17{fill:#E5AF51;}
	.st18{fill:#F9EAB0;}
	.st19{fill:#BA8942;}
	.st20{fill:#FFDB2B;}
	.st21{fill:#CBB292;}
	.st22{fill:#CB8252;}
	.st23{fill:#D0E8F9;}
	.st24{fill:#464F5D;}
	.st25{fill:#FEC722;}
	.st26{fill:#D3DADD;}
	.st27{fill:#C7D0D8;}
</style>
<g id="Layer_1" class="st0">
	<g class="st1">
		<path class="st2" d="M26.3,4L26.3,4c0.1,0.6,0.9,0.7,1.1,0.2l0,0c1.3-2.6,5.3-1.3,4.8,1.6l0,0c-0.1,0.6,0.6,0.9,1,0.5l0,0
			c2.1-2.1,5.4,0.4,4.1,3l0,0c-0.3,0.5,0.3,1.1,0.8,0.8l0,0c2.6-1.3,5,2,3,4.1l0,0c-0.4,0.4-0.1,1.1,0.5,1l0,0
			c2.9-0.5,4.2,3.5,1.6,4.8l0,0c-0.5,0.3-0.4,1,0.2,1.1l0,0c2.9,0.4,2.9,4.6,0,5.1l0,0c-0.6,0.1-0.7,0.9-0.2,1.1l0,0
			c2.6,1.3,1.3,5.3-1.6,4.8l0,0c-0.6-0.1-0.9,0.6-0.5,1l0,0c2.1,2.1-0.4,5.4-3,4.1l0,0c-0.5-0.3-1.1,0.3-0.8,0.8l0,0
			c1.3,2.6-2,5-4.1,3l0,0c-0.4-0.4-1.1-0.1-1,0.5l0,0c0.5,2.9-3.5,4.2-4.8,1.6l0,0c-0.3-0.5-1-0.4-1.1,0.2l0,0
			c-0.4,2.9-4.6,2.9-5.1,0l0,0c-0.1-0.6-0.9-0.7-1.1-0.2l0,0c-1.3,2.6-5.3,1.3-4.8-1.6l0,0c0.1-0.6-0.6-0.9-1-0.5l0,0
			c-2.1,2.1-5.4-0.4-4.1-3l0,0c0.3-0.5-0.3-1.1-0.8-0.8l0,0c-2.6,1.3-5-2-3-4.1l0,0c0.4-0.4,0.1-1.1-0.5-1l0,0
			c-2.9,0.5-4.2-3.5-1.6-4.8l0,0c0.5-0.3,0.4-1-0.2-1.1l0,0c-2.9-0.4-2.9-4.6,0-5.1l0,0c0.6-0.1,0.7-0.9,0.2-1.1l0,0
			c-2.6-1.3-1.3-5.3,1.6-4.8l0,0c0.6,0.1,0.9-0.6,0.5-1l0,0C4.4,12,6.8,8.6,9.4,10l0,0c0.5,0.3,1.1-0.3,0.8-0.8l0,0
			c-1.3-2.6,2-5,4.1-3l0,0c0.4,0.4,1.1,0.1,1-0.5l0,0c-0.5-2.9,3.5-4.2,4.8-1.6l0,0c0.3,0.5,1,0.4,1.1-0.2l0,0
			C21.7,1.1,25.9,1.1,26.3,4z"/>
		<path class="st3" d="M26.3,43.1c-0.4,2.9-4.6,2.9-5.1,0c-0.1-0.4-0.7-0.6-0.7-0.5s0,17.2,0,17.2h6c0,0,0-17,0-17.1
			S26.3,42.9,26.3,43.1z"/>
		<path class="st4" d="M26.5,35.8c-0.6,0-1-0.4-1-1c0-5,4-9,9-9c0.6,0,1,0.4,1,1s-0.4,1-1,1c-3.9,0-7,3.1-7,7
			C27.5,35.3,27.1,35.8,26.5,35.8z"/>
		<path class="st4" d="M20.5,38.8c-0.6,0-1-0.4-1-1c0-3.9-3.1-7-7-7c-0.6,0-1-0.4-1-1s0.4-1,1-1c5,0,9,4,9,9
			C21.5,38.3,21.1,38.8,20.5,38.8z"/>
		<path class="st4" d="M22.5,27.8c-0.6,0-1-0.4-1-1c0-3.9-3.1-7-7-7c-0.6,0-1-0.4-1-1s0.4-1,1-1c5,0,9,4,9,9
			C23.5,27.3,23.1,27.8,22.5,27.8z"/>
		<path class="st4" d="M23.5,19.8c-0.6,0-1-0.4-1-1c0-5,4-9,9-9c0.6,0,1,0.4,1,1s-0.4,1-1,1c-3.9,0-7,3.1-7,7
			C24.5,19.3,24.1,19.8,23.5,19.8z"/>
		<path class="st4" d="M38.5,19.8c-2.2,0-4-1.8-4-4c0-0.6,0.4-1,1-1s1,0.4,1,1c0,1.1,0.9,2,2,2c0.6,0,1,0.4,1,1S39.1,19.8,38.5,19.8
			z"/>
		<path class="st4" d="M29.5,23.8c-0.6,0-1-0.4-1-1c0-2.2,1.8-4,4-4c0.6,0,1,0.4,1,1s-0.4,1-1,1c-1.1,0-2,0.9-2,2
			C30.5,23.3,30.1,23.8,29.5,23.8z"/>
		<path class="st4" d="M20.5,12.8c-2.2,0-4-1.8-4-4c0-0.6,0.4-1,1-1s1,0.4,1,1c0,1.1,0.9,2,2,2c0.6,0,1,0.4,1,1S21.1,12.8,20.5,12.8
			z"/>
		<path class="st4" d="M9.5,25.8c-0.6,0-1-0.4-1-1s0.4-1,1-1c1.1,0,2-0.9,2-2c0-0.6,0.4-1,1-1s1,0.4,1,1C13.5,24,11.7,25.8,9.5,25.8
			z"/>
		<path class="st4" d="M33.5,35.8c-0.6,0-1-0.4-1-1c0-2.2,1.8-4,4-4c0.6,0,1,0.4,1,1c0,0.6-0.4,1-1,1c-1.1,0-2,0.9-2,2
			C34.5,35.3,34.1,35.8,33.5,35.8z"/>
		<path class="st5" d="M17.5,60.8c-0.6,0-1-0.4-1-1v-1c0-0.6,0.4-1,1-1s1,0.4,1,1v1C18.5,60.3,18.1,60.8,17.5,60.8z"/>
		<path class="st5" d="M14.5,60.8c-0.6,0-1-0.4-1-1v-1c0-0.6,0.4-1,1-1s1,0.4,1,1v1C15.5,60.3,15.1,60.8,14.5,60.8z"/>
		<path class="st5" d="M11.5,60.8c-0.6,0-1-0.4-1-1v-1c0-0.6,0.4-1,1-1s1,0.4,1,1v1C12.5,60.3,12.1,60.8,11.5,60.8z"/>
		<path class="st5" d="M8.5,60.8c-0.6,0-1-0.4-1-1v-1c0-0.6,0.4-1,1-1s1,0.4,1,1v1C9.5,60.3,9.1,60.8,8.5,60.8z"/>
		<path class="st5" d="M5.5,60.8c-0.6,0-1-0.4-1-1v-1c0-0.6,0.4-1,1-1s1,0.4,1,1v1C6.5,60.3,6.1,60.8,5.5,60.8z"/>
		<path class="st5" d="M35.5,60.8c-0.6,0-1-0.4-1-1v-1c0-0.6,0.4-1,1-1s1,0.4,1,1v1C36.5,60.3,36.1,60.8,35.5,60.8z"/>
		<path class="st5" d="M32.5,60.8c-0.6,0-1-0.4-1-1v-1c0-0.6,0.4-1,1-1s1,0.4,1,1v1C33.5,60.3,33.1,60.8,32.5,60.8z"/>
		<path class="st5" d="M29.5,60.8c-0.6,0-1-0.4-1-1v-1c0-0.6,0.4-1,1-1s1,0.4,1,1v1C30.5,60.3,30.1,60.8,29.5,60.8z"/>
		<path class="st5" d="M44.5,60.8c-0.6,0-1-0.4-1-1v-1c0-0.6,0.4-1,1-1s1,0.4,1,1v1C45.5,60.3,45.1,60.8,44.5,60.8z"/>
		<path class="st5" d="M41.5,60.8c-0.6,0-1-0.4-1-1v-1c0-0.6,0.4-1,1-1s1,0.4,1,1v1C42.5,60.3,42.1,60.8,41.5,60.8z"/>
		<path class="st5" d="M38.5,60.8c-0.6,0-1-0.4-1-1v-1c0-0.6,0.4-1,1-1s1,0.4,1,1v1C39.5,60.3,39.1,60.8,38.5,60.8z"/>
		<path class="st5" d="M53.5,60.8c-0.6,0-1-0.4-1-1v-1c0-0.6,0.4-1,1-1s1,0.4,1,1v1C54.5,60.3,54.1,60.8,53.5,60.8z"/>
		<path class="st5" d="M50.5,60.8c-0.6,0-1-0.4-1-1v-1c0-0.6,0.4-1,1-1s1,0.4,1,1v1C51.5,60.3,51.1,60.8,50.5,60.8z"/>
		<path class="st5" d="M47.5,60.8c-0.6,0-1-0.4-1-1v-1c0-0.6,0.4-1,1-1s1,0.4,1,1v1C48.5,60.3,48.1,60.8,47.5,60.8z"/>
		<path class="st6" d="M52.5,13.8c0-3.3,2.7-6,6-6"/>
		<path class="st6" d="M52.5,13.8c0-2.8-2.2-5-5-5"/>
	</g>
</g>
<g id="Layer_2" class="st0">
	<rect x="22" y="51" class="st7" width="36" height="6"/>
	<rect x="23" y="42" class="st7" width="34" height="6"/>
	<rect x="24" y="33" class="st7" width="32" height="6"/>
	<rect x="25" y="24" class="st7" width="30" height="6"/>
	<rect x="26" y="15" class="st7" width="28" height="6"/>
	<rect x="27" y="6" class="st7" width="26" height="6"/>
	<g class="st1">
		<polygon class="st8" points="51.1,33 50.9,30 47.9,30 48.1,33 		"/>
		<polygon class="st8" points="46.9,15 49.9,15 49.7,12 46.7,12 		"/>
		<polygon class="st8" points="51.7,42 51.5,39 48.5,39 48.7,42 		"/>
		<polygon class="st8" points="50.5,24 50.3,21 47.3,21 47.5,24 		"/>
		<polygon class="st8" points="49.8,57 50,60 53,60 52.8,57 		"/>
		<polygon class="st8" points="49.2,6 49,2 46,2 46.2,6 		"/>
		<polygon class="st8" points="52.3,51 52.1,48 49.1,48 49.3,51 		"/>
	</g>
	<g class="st1">
		<polygon class="st8" points="31.8,33 32,30 29,30 28.8,33 		"/>
		<polygon class="st8" points="32.5,24 32.7,21 29.7,21 29.5,24 		"/>
		<polygon class="st8" points="30.1,15 33.1,15 33.3,12 30.3,12 		"/>
		<polygon class="st8" points="31.2,42 31.4,39 28.4,39 28.2,42 		"/>
		<polygon class="st8" points="30.6,51 30.8,48 27.8,48 27.6,51 		"/>
		<polygon class="st8" points="27.2,57 27,60 30,60 30.2,57 		"/>
		<polygon class="st8" points="33.7,6 34,2 31,2 30.7,6 		"/>
	</g>
	<g class="st1">
		<circle class="st9" cx="32" cy="9" r="1"/>
		<circle class="st9" cx="31" cy="18" r="1"/>
		<circle class="st9" cx="30" cy="27" r="1"/>
		<circle class="st9" cx="30" cy="36" r="1"/>
		<circle class="st9" cx="50" cy="36" r="1"/>
		<circle class="st9" cx="51" cy="45" r="1"/>
		<circle class="st9" cx="29" cy="45" r="1"/>
		<circle class="st9" cx="29" cy="54" r="1"/>
		<circle class="st9" cx="51" cy="54" r="1"/>
		<circle class="st9" cx="50" cy="27" r="1"/>
		<circle class="st9" cx="49" cy="18" r="1"/>
		<circle class="st9" cx="48" cy="9" r="1"/>
	</g>
	<path class="st10" d="M7.7,3.3l-1-1C6.5,2.1,6.2,2,6,2H4C3.7,2,3.4,2.1,3.3,2.3l-1,1C2.1,3.5,2,3.7,2,4v4c0,0.3,0.1,0.5,0.3,0.7
		l1,1C3.4,9.9,3.7,10,4,10v47c0,0.6,0.4,1,1,1s1-0.4,1-1V10c0.3,0,0.5-0.1,0.7-0.3l1-1C7.9,8.5,8,8.3,8,8V4C8,3.7,7.9,3.5,7.7,3.3z"
		/>
	<path class="st11" d="M14.7,53.3l-1-1C13.5,52.1,13.2,52,13,52V5c0-0.6-0.4-1-1-1s-1,0.4-1,1v47c-0.3,0-0.5,0.1-0.7,0.3l-1,1
		C9.1,53.5,9,53.7,9,54v4c0,0.3,0.1,0.5,0.3,0.7l1,1c0.2,0.2,0.4,0.3,0.7,0.3h2c0.3,0,0.5-0.1,0.7-0.3l1-1c0.2-0.2,0.3-0.4,0.3-0.7
		v-4C15,53.7,14.9,53.5,14.7,53.3z"/>
</g>
<g id="Layer_3" class="st0">
	<g class="st1">
		<g>
			<path class="st12" d="M27.2,48.7l-11.6,4.5l1.5-9.7l10.8-2.8c0.5-0.1,0.9-0.7,0.7-1.2s-0.7-0.9-1.2-0.7l-9.9,2.6l1.2-7.5
				c0.1-0.5-0.3-1.1-0.8-1.1c-0.5-0.1-1.1,0.3-1.1,0.8l-1.4,9c0,0,0,0,0,0l-2.5,16.1h-1.1c-0.6,0-1,0.4-1,1s0.4,1,1,1h4
				c0.6,0,1-0.4,1-1s-0.4-1-1-1h-0.8l0.5-3.2l12.7-4.9c0.5-0.2,0.8-0.8,0.6-1.3C28.3,48.7,27.7,48.5,27.2,48.7z"/>
			<path class="st12" d="M49.5,58.6h-1.1l-2.5-16.1c0,0,0,0,0,0l-1.4-9c-0.1-0.5-0.6-0.9-1.1-0.8c-0.5,0.1-0.9,0.6-0.8,1.1l1.2,7.5
				l-9.9-2.6c-0.5-0.1-1.1,0.2-1.2,0.7s0.2,1.1,0.7,1.2L44,43.4l1.5,9.7l-11.6-4.5c-0.5-0.2-1.1,0.1-1.3,0.6s0.1,1.1,0.6,1.3
				l12.7,4.9l0.5,3.2h-0.8c-0.6,0-1,0.4-1,1s0.4,1,1,1h4c0.6,0,1-0.4,1-1S50.1,58.6,49.5,58.6z"/>
		</g>
		<polygon class="st13" points="30.5,6.5 14.5,17.5 14.5,33.6 46.5,33.6 46.5,18.2 		"/>
		<path class="st13" d="M26.5,32.6v28h2v-2h4v2h2v-28H26.5z M32.5,34.6v2h-4v-2H32.5z M28.5,48.6v-2h4v2H28.5z M32.5,50.6v2h-4v-2
			H32.5z M28.5,44.6v-2h4v2H28.5z M28.5,40.6v-2h4v2H28.5z M28.5,56.6v-2h4v2H28.5z"/>
		<rect x="26.5" y="21.6" class="st14" width="8" height="12"/>
		<g>
			<path class="st12" d="M22.5,22.6h-7c-0.6,0-1,0.4-1,1s0.4,1,1,1h7c0.6,0,1-0.4,1-1S23.1,22.6,22.5,22.6z"/>
			<path class="st12" d="M20.5,19.6c0.6,0,1-0.4,1-1s-0.4-1-1-1h-6c-0.6,0-1,0.4-1,1s0.4,1,1,1H20.5z"/>
			<path class="st12" d="M25.5,12.6h-5c-0.6,0-1,0.4-1,1s0.4,1,1,1h5c0.6,0,1-0.4,1-1S26.1,12.6,25.5,12.6z"/>
			<path class="st12" d="M40.5,13.6c0-0.6-0.4-1-1-1h-7c-0.6,0-1,0.4-1,1s0.4,1,1,1h7C40.1,14.6,40.5,14.1,40.5,13.6z"/>
			<path class="st12" d="M47.5,18.6c0-0.6-0.4-1-1-1h-10c-0.6,0-1,0.4-1,1s0.4,1,1,1h10C47.1,19.6,47.5,19.1,47.5,18.6z"/>
			<path class="st12" d="M46.5,22.6h-6c-0.6,0-1,0.4-1,1s0.4,1,1,1h6c0.6,0,1-0.4,1-1S47.1,22.6,46.5,22.6z"/>
			<path class="st12" d="M20.5,27.6h-5c-0.6,0-1,0.4-1,1s0.4,1,1,1h5c0.6,0,1-0.4,1-1S21.1,27.6,20.5,27.6z"/>
			<path class="st12" d="M46.5,27.6h-8c-0.6,0-1,0.4-1,1s0.4,1,1,1h8c0.6,0,1-0.4,1-1S47.1,27.6,46.5,27.6z"/>
		</g>
		<circle class="st12" cx="28.5" cy="27.6" r="1"/>
		<line class="st15" x1="43.5" y1="2.6" x2="43.5" y2="1.6"/>
		<line class="st15" x1="40.5" y1="2.6" x2="40.5" y2="1.6"/>
		<polygon class="st13" points="45.5,13.6 45.5,5 39.5,5 39.5,9.2 		"/>
		<path class="st14" d="M51.9,22.1L30.5,6.5L9.2,21.2c-0.3,0.2-0.8,0.1-1-0.2l-1.3-2.2c-0.2-0.3-0.1-0.7,0.2-0.9L30.5,1.6
			c0,0,0.1,0,0.1,0L54,18.7c0.3,0.2,0.4,0.6,0.2,0.9l-1.3,2.2C52.7,22.3,52.2,22.4,51.9,22.1z"/>
	</g>
</g>
<g id="Layer_4" class="st0">
	<g class="st1">
		<path class="st16" d="M13.8,58.9L2.3,47.4c3.2-3.2,3.3-8.4,0.2-11.6L35.7,2.6c3.2,3.2,8.2,3.1,11.5-0.1L58.7,14
			c-3.2,3.2-3,8.7,0.1,11.8L25.6,59.1C22.4,55.8,17,55.7,13.8,58.9z"/>
		<path class="st17" d="M49.9,15.4l-3.9-3.9c-1.5,0.5-3.1,0.7-4.6,0.7c-1.5,0-2.9-0.2-4.3-0.6L21.7,26.8l-5.4,5.4l-5,5
			c0.9,2.9,0.8,6.1-0.1,9l3.9,3.9c1.4-0.4,2.9-0.7,4.5-0.7c1.6,0,3.3,0.3,4.8,0.7l5.3-5.3l5.1-5.1l15.2-15.2
			C49,21.6,49,18.4,49.9,15.4z"/>
		<polygon class="st18" points="20.4,34.9 22,38.3 25.5,38.8 22.9,41.5 23.5,45.2 20.4,43.4 17.2,45.2 17.8,41.5 15.3,38.8 
			18.8,38.3 		"/>
		<polygon class="st18" points="30.6,24.7 32.2,28.1 35.7,28.6 33.2,31.2 33.8,34.9 30.6,33.2 27.5,34.9 28.1,31.2 25.5,28.6 
			29,28.1 		"/>
		<polygon class="st18" points="39.8,15.5 41.4,18.9 44.9,19.4 42.4,22 43,25.7 39.8,24 36.7,25.7 37.3,22 34.7,19.4 38.2,18.9 		
			"/>
		<path class="st19" d="M36,47.5c-0.3,0-0.5-0.1-0.7-0.3l-0.7-0.7c-0.4-0.4-0.4-1,0-1.4c0.4-0.4,1-0.4,1.4,0l0.7,0.7
			c0.4,0.4,0.4,1,0,1.4C36.5,47.4,36.3,47.5,36,47.5z M33.1,44.6c-0.3,0-0.5-0.1-0.7-0.3l-0.7-0.7c-0.4-0.4-0.4-1,0-1.4
			c0.4-0.4,1-0.4,1.4,0l0.7,0.7c0.4,0.4,0.4,1,0,1.4C33.6,44.5,33.4,44.6,33.1,44.6z M30.2,41.7c-0.3,0-0.5-0.1-0.7-0.3l-0.7-0.7
			c-0.4-0.4-0.4-1,0-1.4c0.4-0.4,1-0.4,1.4,0l0.7,0.7c0.4,0.4,0.4,1,0,1.4C30.7,41.6,30.5,41.7,30.2,41.7z M27.3,38.8
			c-0.3,0-0.5-0.1-0.7-0.3l-0.7-0.7c-0.4-0.4-0.4-1,0-1.4c0.4-0.4,1-0.4,1.4,0L28,37c0.4,0.4,0.4,1,0,1.4
			C27.8,38.7,27.6,38.8,27.3,38.8z M24.4,35.9c-0.3,0-0.5-0.1-0.7-0.3L23,34.9c-0.4-0.4-0.4-1,0-1.4c0.4-0.4,1-0.4,1.4,0l0.7,0.7
			c0.4,0.4,0.4,1,0,1.4C24.9,35.8,24.7,35.9,24.4,35.9z M21.5,33c-0.3,0-0.5-0.1-0.7-0.3L20.1,32c-0.4-0.4-0.4-1,0-1.4
			c0.4-0.4,1-0.4,1.4,0l0.7,0.7c0.4,0.4,0.4,1,0,1.4C22,32.9,21.8,33,21.5,33z M18.6,30.1c-0.3,0-0.5-0.1-0.7-0.3l-0.7-0.7
			c-0.4-0.4-0.4-1,0-1.4c0.4-0.4,1-0.4,1.4,0l0.7,0.7c0.4,0.4,0.4,1,0,1.4C19.2,30,18.9,30.1,18.6,30.1z M15.7,27.2
			c-0.3,0-0.5-0.1-0.7-0.3l-0.7-0.7c-0.4-0.4-0.4-1,0-1.4c0.4-0.4,1-0.4,1.4,0l0.7,0.7c0.4,0.4,0.4,1,0,1.4
			C16.3,27.1,16,27.2,15.7,27.2z"/>
	</g>
</g>
<g id="Layer_5" class="st0">
	<g class="st1">
		<g>
			<path class="st20" d="M49.3,14.8c-0.5-0.2-1-0.3-1.5-0.3h-34c-0.5,0-1.1,0.1-1.5,0.3H49.3z"/>
			<path class="st20" d="M9.8,21.8v30c0,2.2,1.8,4,4,4h34c2.2,0,4-1.8,4-4v-30H9.8z"/>
		</g>
		<path class="st21" d="M54.8,21.8H6.3c-1.9,0-3.5-1.6-3.5-3.5v0c0-1.9,1.6-3.5,3.5-3.5h48.5c1.9,0,3.5,1.6,3.5,3.5v0
			C58.3,20.2,56.7,21.8,54.8,21.8z"/>
		<path class="st22" d="M49.8,14.8h-39l2.3-5.4c0-0.2,0.9-2.3,0.9-2.5c0.8-3.1,4.2-5.8,7.2-4.7l7.5,2.7c1.2,0.4,2.5,0.4,3.6,0
			l6.6-2.9c2.2-0.7,4.6-0.1,6,1.7c0.6,0.8,2.3,4.7,2.4,5.6L49.8,14.8z"/>
		<ellipse class="st23" cx="22.1" cy="30.8" rx="5.3" ry="5.4"/>
		<ellipse class="st23" cx="38.4" cy="30.8" rx="5.3" ry="5.4"/>
		<path class="st8" d="M38.4,24.4c-2.8,0-5.2,1.9-6,4.5c-0.7-0.3-1.4-0.5-2.1-0.5s-1.5,0.2-2.1,0.5c-0.8-2.6-3.2-4.5-6-4.5
			c-3.5,0-6.3,2.9-6.3,6.4s2.8,6.4,6.3,6.4c3.4,0,6.2-2.8,6.3-6.2c1-0.7,2.7-0.7,3.7,0c0.1,3.4,2.9,6.2,6.3,6.2
			c3.5,0,6.3-2.9,6.3-6.4S41.9,24.4,38.4,24.4z M22.1,35.2c-2.4,0-4.3-2-4.3-4.4s1.9-4.4,4.3-4.4s4.3,2,4.3,4.4S24.5,35.2,22.1,35.2
			z M38.4,35.2c-2.4,0-4.3-2-4.3-4.4s1.9-4.4,4.3-4.4s4.3,2,4.3,4.4S40.8,35.2,38.4,35.2z"/>
		<path class="st24" d="M51.8,38.6c-1.1-1.5-2.4-2.4-3.9-2.7c-1.8-0.3-3.4,0.1-4.1,1.3c-0.6,0.9-0.5,2.1,0.3,3.2
			c0.9,1.2,2.3,1.5,3,1.4c0.5-0.1,0.9-0.5,0.9-1.1c0-0.5-0.5-0.9-1.1-0.9c-0.1,0-0.7,0-1.1-0.6c-0.2-0.2-0.4-0.7-0.2-1
			c0.2-0.3,1-0.6,2.1-0.4c1,0.2,1.8,0.8,2.7,1.9c0.6,0.8,0.7,1.8,0.3,2.6c-0.5,0.9-1.6,1.9-3.1,1.9c-0.2,0-0.4,0-0.6-0.1
			C45.2,44,43.6,43.2,42,42c-0.4-0.3-0.7-0.5-1.1-0.7c-0.1-0.1-0.2-0.1-0.3-0.2c-0.3-0.2-0.6-0.3-0.9-0.4c-0.1,0-0.2-0.1-0.2-0.1
			c-0.4-0.1-0.7-0.2-1.1-0.3c-0.1,0-0.2,0-0.2,0c-0.3-0.1-0.7-0.1-1-0.1c0,0-0.1,0-0.1,0c0,0,0,0,0,0c-0.3,0-0.7,0-1,0.1
			c0,0-0.1,0-0.1,0c-0.3,0-0.6,0.1-0.9,0.2c0,0,0,0-0.1,0c-1.7,0.5-3.2,1.6-4.2,2.6c-1-1-2.5-2.1-4.2-2.6c0,0-0.1,0-0.1,0
			c-0.3-0.1-0.6-0.1-0.8-0.2c-0.1,0-0.1,0-0.2,0c-0.3,0-0.6-0.1-1-0.1c0,0,0,0,0,0c0,0-0.1,0-0.1,0c-0.3,0-0.7,0-1,0.1
			c-0.1,0-0.2,0-0.2,0c-0.4,0.1-0.7,0.2-1.1,0.3c-0.1,0-0.2,0.1-0.2,0.1c-0.3,0.1-0.6,0.2-0.9,0.4c-0.1,0.1-0.2,0.1-0.3,0.2
			c-0.4,0.2-0.7,0.4-1.1,0.7c-1.6,1.2-3.3,1.9-4.9,2.3c-0.2,0-0.4,0.1-0.6,0.1c-0.7,0-1.4-0.2-2-0.6c-0.1,0-0.1-0.1-0.1-0.1
			c-0.1-0.1-0.1-0.1-0.2-0.2c-0.1-0.1-0.1-0.1-0.2-0.2c-0.1-0.1-0.1-0.1-0.2-0.2c0-0.1-0.1-0.1-0.1-0.2c-0.1-0.1-0.1-0.2-0.2-0.3
			c0-0.1-0.1-0.1-0.1-0.2l0,0c0,0,0,0,0,0c-0.4-0.9-0.3-1.9,0.3-2.7c0.7-0.9,1.4-1.7,2.6-1.9c0.8-0.1,1.5,0.1,1.8,0.6
			c0.2,0.3,0.2,0.7,0.1,0.8c-0.4,0.6-1.2,0.6-1.2,0.6c-0.6,0-1,0.4-1,1s0.4,1,1,1c0.2,0,1.9,0,2.9-1.5c0.5-0.8,0.5-2-0.1-3
			c-0.7-1.2-2.1-1.7-3.8-1.5c-2.2,0.3-3.4,2-3.9,2.7c-1,1.4-1.2,3.1-0.6,4.6c0,0,0,0,0,0c0,0,0,0,0,0c0,0,0,0,0,0.1c0,0,0,0.1,0,0.1
			c2.3,5.4,6.7,8.2,12.6,8.2c4.1,0,7.7-1.3,8.9-1.8c1.2,0.5,4.8,1.8,8.9,1.8h0c5.9,0,10.3-2.9,12.6-8.3C53.1,41.7,52.9,40,51.8,38.6
			z"/>
		<path class="st25" d="M42.5,59.8H19.1c-0.7,0-1.3-0.6-1.3-1.3v-2.7h26v2.7C43.8,59.2,43.2,59.8,42.5,59.8z"/>
	</g>
</g>
<g id="Layer_6">
	<g>
		<path class="st26" d="M23.9,3.5l-1.4,1.7c-6.7,8-10.1,12.1-11.6,26.3c2.5,0.3,4.9,0.4,7.2,0.4c1.7-15.3,6.4-20.9,13.4-29.4
			l0.5-0.6c-0.4,0-0.9,0-1.3,0c-2.2,0-4.4,0.3-6.5,0.7C24.2,2.9,24.1,3.2,23.9,3.5z"/>
		<path class="st9" d="M8.8,31.2c1.6-14.7,5.4-19.3,12.1-27.3l0.4-0.5C10.1,7.1,2,17.5,1.6,29.8c0.1,0,0.2,0,0.2,0
			C4.2,30.4,6.5,30.8,8.8,31.2z"/>
		<path class="st9" d="M3.1,37.9c10.5,4.9,16.6,5.6,31-0.3c-1.1-1.9-2.4-3.7-3.8-5.4L30.1,32c-3.4,1.1-7.1,1.7-11.1,1.9
			c0,0-0.1,0-0.1,0c0,0-0.1,0-0.1,0c0,0,0,0,0,0c-0.6,0-1.1,0-1.7,0c-2.4,0-4.9-0.2-7.4-0.5l0,0c0,0-0.1,0-0.1,0c0,0,0,0,0,0
			C7,33,4.3,32.5,1.6,31.9c0.1,2,0.4,4,0.8,5.9C2.7,37.7,2.9,37.8,3.1,37.9z"/>
		<path class="st9" d="M33,3.8c-7,8.4-11.3,13.6-12.9,28c3.4-0.2,6.6-0.8,9.5-1.7c1.3-12.2,5.3-16.8,10.6-23.2
			c0.7-0.8,1.4-1.6,2.1-2.5c-2.6-1.1-5.3-1.9-8.2-2.3c0,0.2-0.1,0.4-0.2,0.5L33,3.8z"/>
		<path class="st26" d="M8.6,48.5c11.2,2.9,16.8,3.5,29.8-1.7c-0.9-2.6-2-5.1-3.3-7.4c-7.2,3-12.6,4.5-17.6,4.5
			c-4.6,0-9-1.3-14.4-3.7c1.1,3.1,2.6,6,4.6,8.5C8,48.5,8.3,48.4,8.6,48.5z"/>
		<path class="st9" d="M41.8,8.2c-0.8,0.9-1.5,1.8-2.2,2.6c11.8,6.1,16.1,14.9,18.9,27.6c0.7-2.4,1-5,1-7.6c0-11-6.2-20.6-15.3-25.5
			c0,0.1-0.1,0.1-0.1,0.2C43.3,6.4,42.5,7.3,41.8,8.2z"/>
		<path class="st26" d="M56.8,40.6c-2.6-13.2-6.6-22.1-18.5-28.2c-1.5,2-2.8,4-3.9,6.4c11.9,7.9,17.1,17.6,17.2,31.9
			c2.5-2.7,4.5-5.8,5.9-9.3C57.2,41.3,56.9,41,56.8,40.6z"/>
		<path class="st9" d="M33.6,20.8c-0.9,2.6-1.6,5.7-2,9.7l0.3,0.4c6.1,7.4,9.8,16.2,11,26.1c2.5-1.2,4.9-2.8,7-4.6
			c-0.2-0.2-0.3-0.4-0.3-0.7C49.7,37.8,44.9,28.4,33.6,20.8z"/>
		<path class="st9" d="M39.1,48.8c-7.1,2.8-12.1,4-17,4c-3.9,0-7.7-0.7-12.4-1.9c5.3,5.5,12.7,8.9,20.9,8.9c3.7,0,7.1-0.7,10.4-1.9
			l0-0.3C40.5,54.5,39.9,51.6,39.1,48.8z"/>
		<path class="st27" d="M39.6,10.8c0.7-0.8,1.4-1.7,2.2-2.6c0.7-0.9,1.5-1.8,2.3-2.7c0-0.1,0.1-0.1,0.1-0.2
			c-0.6-0.3-1.2-0.6-1.9-0.9c-0.7,0.9-1.4,1.7-2.1,2.5c-5.4,6.3-9.3,11-10.6,23.2c-2.9,0.9-6.1,1.5-9.5,1.7
			C21.7,17.3,26,12.2,33,3.8l1-1.1c0.1-0.2,0.2-0.4,0.2-0.5c-0.8-0.1-1.5-0.2-2.3-0.2l-0.5,0.6c-7,8.5-11.7,14.1-13.4,29.4
			c-2.3,0-4.7-0.1-7.2-0.4c1.5-14.1,5-18.3,11.6-26.3l1.4-1.7c0.2-0.3,0.3-0.6,0.2-0.9c-0.9,0.2-1.9,0.5-2.8,0.8l-0.4,0.5
			c-6.7,8.1-10.5,12.6-12.1,27.3c-2.3-0.3-4.6-0.8-6.9-1.4c-0.1,0-0.2,0-0.2,0c0,0.3,0,0.7,0,1c0,0.4,0,0.7,0,1.1
			C4.3,32.5,7,33,9.5,33.4c0,0,0,0,0,0c0,0,0.1,0,0.1,0l0,0c2.6,0.3,5,0.5,7.4,0.5c0.6,0,1.1,0,1.7,0c0,0,0,0,0,0c0,0,0.1,0,0.1,0
			c0,0,0.1,0,0.1,0c4-0.2,7.7-0.8,11.1-1.9l0.1,0.2c1.4,1.7,2.7,3.5,3.8,5.4c-14.4,5.9-20.5,5.2-31,0.3c-0.2-0.1-0.5-0.1-0.7-0.1
			c0.2,0.8,0.4,1.6,0.7,2.3c5.4,2.4,9.8,3.7,14.4,3.7c5,0,10.4-1.5,17.6-4.5c1.3,2.4,2.4,4.8,3.3,7.4c-13,5.2-18.6,4.5-29.8,1.7
			c-0.3-0.1-0.6,0-0.9,0.2c0.6,0.8,1.2,1.5,1.9,2.2c4.7,1.2,8.5,1.9,12.4,1.9c4.9,0,9.9-1.2,17-4c0.8,2.8,1.4,5.7,1.8,8.8l0,0.3
			c0.7-0.3,1.3-0.5,2-0.8c-1.1-9.9-4.8-18.7-11-26.1l-0.3-0.4c0.4-4,1.1-7.1,2-9.7c11.2,7.7,16,17,15.9,30.9c0,0.3,0.1,0.5,0.3,0.7
			c0.6-0.6,1.2-1.1,1.8-1.7c-0.1-14.3-5.3-23.9-17.2-31.9c1.1-2.4,2.4-4.4,3.9-6.4c12,6.1,15.9,15,18.5,28.2
			c0.1,0.4,0.3,0.6,0.6,0.8c0.4-1,0.7-2,1-3C55.7,25.7,51.5,16.9,39.6,10.8z"/>
	</g>
</g>
</svg>
