<?xml version="1.0" encoding="utf-8"?>
<!-- Generator: Adobe Illustrator 19.1.0, SVG Export Plug-In . SVG Version: 6.00 Build 0)  -->
<svg version="1.1" id="Layer_1" xmlns="http://www.w3.org/2000/svg" xmlns:xlink="http://www.w3.org/1999/xlink" x="0px" y="0px"
	 viewBox="0 0 598.3 122.1" style="enable-background:new 0 0 598.3 122.1;" xml:space="preserve">
<style type="text/css">
	.st0{fill:#FFFFFF;}
</style>
<g>
	<g>
		<g>
			<path class="st0" d="M390.8,61l0-0.1c3.9-2.3,5.8-6.8,5.8-10.8c0-9.1-7.6-13.6-18.6-13.6l-14.6,0c-3.1,0-4.7,1.6-4.7,4.6l-0.1,42
				c0,3,1.6,4.6,4.7,4.6l14.4,0c10.7,0,20.9-3.7,20.9-15.5C398.7,68.2,396.9,62.9,390.8,61z M373.7,48.5l4.2,0
				c2.7,0,3.7,1.7,3.7,3.4c0,1.4-1,3.5-3.4,3.5l-4.5,0L373.7,48.5z M379,75.6l-5.4,0l0-8.1l5.4,0c3.1,0,4.5,2.2,4.5,4
				C383.6,73.4,382,75.6,379,75.6z M427.6,35.7c-16.3,0-27.1,11.4-27.1,26.1c0,15.1,10.7,26.9,27,26.9c16.3,0,27.1-11.7,27.2-26.8
				C454.7,47.2,443.9,35.7,427.6,35.7z M427.5,75c-6.8,0-11.5-5.7-11.5-13.2c0-7.1,4.7-12.5,11.5-12.5c6.8,0,11.5,5.4,11.5,12.5
				C439.1,69.4,434.4,75,427.5,75z M488.5,75.1l-15.3,0l0.1-33.8c0-3.1-1.6-4.6-4.6-4.6l-5.7,0c-3.1,0-4.7,1.6-4.7,4.6l-0.1,42
				c0,3,1.6,4.6,4.7,4.6l25.7,0.1c3.1,0,4.7-1.6,4.7-4.6l0-3.6C493.2,76.8,491.6,75.1,488.5,75.1z M511.7,51.8c0-1.4,1-2.4,3.9-2.3
				c3.1,0,5,1.2,7.6,2.3c2.4,1.1,4.6,1.7,6.4-1.6l2.1-4.1c1.2-2.5,1-4.6-1.5-6.4c-2.6-1.8-8.3-3.7-14.3-3.7
				c-10.9,0-19.1,6.5-19.1,16.4c0,16.4,21.7,15.4,21.6,20.8c0,1.2-0.9,2.3-3.8,2.3c-4,0-6.8-2.3-8.5-2.9c-2.8-1.5-4.7-1.4-6.4,1.1
				l-2.7,3.9c-2.2,3.2-0.9,5.1,0.9,6.4c2.9,2.3,9.6,5,16.7,5c12.1,0,18.9-7.7,18.9-16.6C533.5,55.8,511.7,57.6,511.7,51.8z
				 M580.1,82.9l-13.8-42.2c-0.8-2.6-2.6-3.8-5.3-3.8l-7.8,0c-2.8,0-4.4,1.2-5.3,3.8l-14,42.1c-1.2,3.2,0.4,5.4,3.8,5.4l5.8,0
				c2.7,0,4.4-1.3,5.1-3.9l1.1-5l14.5,0l1.1,5c0.8,2.6,2.5,3.9,5.3,3.9l5.8,0C579.7,88.2,581.3,86.1,580.1,82.9z M553.2,67.3
				l1.7-7.1c0.9-3.5,2.1-9.5,2.1-9.5l0.1,0c0,0,1.2,6,2.1,9.5l1.6,7.1L553.2,67.3z"/>
		</g>
	</g>
	<g>
		<g>
			<path class="st0" d="M209.4,36l-5.7,0c-3.1,0-4.6,1.6-4.6,4.6L199,68.1c0,4.2-2.8,6.3-7.1,6.3c-4.2,0-7-2.1-7-6.4l0.1-27.5
				c0-3.1-1.6-4.6-4.6-4.6l-5.8,0c-3,0-4.6,1.6-4.6,4.6L169.9,68c0,11.6,8.6,20.1,22.1,20.1c13.3,0,22-8.4,22-20l0.1-27.5
				C214,37.6,212.5,36,209.4,36z M247.2,74.5l-14.4,0l0-6.6l9.7,0c3.1,0,4.7-1.6,4.7-4.6l0-3.6c0-3-1.6-4.6-4.7-4.6l-9.7,0l0-6.2
				l13.6,0c3,0,4.6-1.6,4.6-4.6l0-3.6c0-3.1-1.6-4.6-4.6-4.6L222.6,36c-3.1,0-4.7,1.6-4.7,4.6l-0.1,42c0,3,1.6,4.6,4.7,4.6l24.8,0.1
				c3.1,0,4.7-1.6,4.7-4.6l0-3.6C251.9,76.2,250.3,74.5,247.2,74.5z M288.9,70.4c-1.1-2-1.9-3.3-1.9-3.3V67c4-3.1,6.8-9.1,6.8-14.3
				c0-7.6-4.4-13.5-10.2-15.4c-2.3-0.8-5.6-1.1-10.3-1.1l-14,0c-3.1,0-4.7,1.6-4.7,4.6l-0.1,42c0,3,1.6,4.6,4.7,4.6l5.7,0
				c3.1,0,4.6-1.6,4.6-4.6l0-11.2l3.6,0l6.5,12.6c1.3,2.4,3.3,3.3,5.5,3.3l6.6,0c3.4,0,5.4-2.1,3.4-5.6L288.9,70.4z M272.8,58.8
				l-3.2,0l0-9.8l2.3,0c1.6,0,2.9,0.1,4,0.6c2.1,0.9,2.3,2.4,2.3,3.8C278.1,57.2,276.4,58.8,272.8,58.8z M322.8,35.4
				c-16.3,0-27.1,11.4-27.1,26.1c0,15.1,10.7,26.9,27,26.9c16.3,0,27.1-11.7,27.2-26.8C349.9,47,339.1,35.4,322.8,35.4z M322.7,74.7
				c-6.8,0-11.5-5.7-11.5-13.2c0-7.1,4.7-12.5,11.5-12.5c6.8,0,11.5,5.4,11.5,12.5C334.3,69.1,329.5,74.7,322.7,74.7z M140.1,34.9
				c-16.3,0-27.1,11.4-27.1,26.1c0,15.1,10.7,26.9,27,26.9c4.8,0,9.1-1,12.8-2.9l0.4,0.4c2.4,2.4,6.4,2.4,8.8,0
				c2.3-2.3,2.4-6.1,0.3-8.5c3.1-4.4,4.8-9.8,4.8-15.8C167.2,46.5,156.4,35,140.1,34.9z M151,65.6c-2.4-2.3-6.3-2.2-8.6,0.1
				c-2.3,2.3-2.4,5.9-0.4,8.4c-0.6,0.1-1.3,0.2-1.9,0.2c-6.8,0-11.5-5.7-11.5-13.2c0-7.1,4.7-12.5,11.5-12.5
				c6.8,0,11.5,5.4,11.5,12.5C151.6,62.7,151.4,64.2,151,65.6z M42.7,74.7c-2.6,0-4.7,2.1-4.7,4.6c0,2.6,2.1,4.7,4.6,4.7
				c2.6,0,4.7-2.1,4.7-4.6C47.3,76.8,45.2,74.7,42.7,74.7z M104.2,61.1c0.1-23.8-19.2-43.2-43.1-43.3C37.3,17.8,17.9,37,17.8,60.9
				s19.2,43.2,43.1,43.3l38.9,0.1L88.9,93.9C98.2,86,104.1,74.3,104.2,61.1z M42.7,35.2c4.2,0,7.6,3.4,7.6,7.6
				c0,4.2-3.4,7.6-7.6,7.6c-4.2,0-7.6-3.4-7.6-7.6C35.1,38.6,38.5,35.2,42.7,35.2z M63.1,69.7L48.1,84.6c-3,2.9-7.8,2.9-10.7,0
				c-2.9-3-2.9-7.8,0-10.7L52.3,59c3-2.9,7.8-2.9,10.7,0C66,62,66,66.8,63.1,69.7z M70.5,61.6c0.3-2.7-0.6-5.5-2.7-7.6
				c-1.9-1.9-4.4-2.8-6.9-2.8c-0.3,0-0.4-0.3-0.2-0.5L74,37.5c3-2.9,7.8-2.9,10.7,0c2.9,3,2.9,7.8,0,10.7L71,61.8
				C70.8,62,70.4,61.9,70.5,61.6z M79.4,87c-4.2,0-7.6-3.4-7.6-7.6c0-4.2,3.4-7.6,7.6-7.6c4.2,0,7.6,3.4,7.6,7.6
				C87,83.6,83.6,87,79.4,87z"/>
		</g>
	</g>
</g>
</svg>
