<?xml version="1.0" encoding="utf-8"?>
<!-- Generator: Adobe Illustrator 19.1.0, SVG Export Plug-In . SVG Version: 6.00 Build 0)  -->
<svg version="1.0" id="Layer_1" xmlns="http://www.w3.org/2000/svg" xmlns:xlink="http://www.w3.org/1999/xlink" x="0px" y="0px"
	 viewBox="0 0 61.1 61.6" style="enable-background:new 0 0 61.1 61.6;" xml:space="preserve">
<style type="text/css">
	.st0{fill:#76A944;}
	.st1{fill:#7F6E5D;}
	.st2{fill:#B1E97C;}
	.st3{fill:#24AE5F;}
	.st4{fill:none;stroke:#687492;stroke-width:2;stroke-linecap:round;stroke-miterlimit:10;}
</style>
<path class="st0" d="M26.3,4L26.3,4c0.1,0.6,0.9,0.7,1.1,0.2l0,0c1.3-2.6,5.3-1.3,4.8,1.6l0,0c-0.1,0.6,0.6,0.9,1,0.5l0,0
	c2.1-2.1,5.4,0.4,4.1,3l0,0c-0.3,0.5,0.3,1.1,0.8,0.8l0,0c2.6-1.3,5,2,3,4.1l0,0c-0.4,0.4-0.1,1.1,0.5,1l0,0
	c2.9-0.5,4.2,3.5,1.6,4.8l0,0c-0.5,0.3-0.4,1,0.2,1.1l0,0c2.9,0.4,2.9,4.6,0,5.1l0,0c-0.6,0.1-0.7,0.9-0.2,1.1l0,0
	c2.6,1.3,1.3,5.3-1.6,4.8l0,0c-0.6-0.1-0.9,0.6-0.5,1l0,0c2.1,2.1-0.4,5.4-3,4.1l0,0c-0.5-0.3-1.1,0.3-0.8,0.8l0,0
	c1.3,2.6-2,5-4.1,3l0,0c-0.4-0.4-1.1-0.1-1,0.5l0,0c0.5,2.9-3.5,4.2-4.8,1.6l0,0c-0.3-0.5-1-0.4-1.1,0.2l0,0c-0.4,2.9-4.6,2.9-5.1,0
	l0,0c-0.1-0.6-0.9-0.7-1.1-0.2l0,0c-1.3,2.6-5.3,1.3-4.8-1.6l0,0c0.1-0.6-0.6-0.9-1-0.5l0,0c-2.1,2.1-5.4-0.4-4.1-3l0,0
	c0.3-0.5-0.3-1.1-0.8-0.8l0,0c-2.6,1.3-5-2-3-4.1l0,0c0.4-0.4,0.1-1.1-0.5-1l0,0c-2.9,0.5-4.2-3.5-1.6-4.8l0,0
	c0.5-0.3,0.4-1-0.2-1.1l0,0c-2.9-0.4-2.9-4.6,0-5.1l0,0c0.6-0.1,0.7-0.9,0.2-1.1l0,0c-2.6-1.3-1.3-5.3,1.6-4.8l0,0
	c0.6,0.1,0.9-0.6,0.5-1l0,0C4.4,12,6.8,8.6,9.4,10l0,0c0.5,0.3,1.1-0.3,0.8-0.8l0,0c-1.3-2.6,2-5,4.1-3l0,0c0.4,0.4,1.1,0.1,1-0.5
	l0,0c-0.5-2.9,3.5-4.2,4.8-1.6l0,0c0.3,0.5,1,0.4,1.1-0.2l0,0C21.7,1.1,25.9,1.1,26.3,4z"/>
<path class="st1" d="M26.3,43.1c-0.4,2.9-4.6,2.9-5.1,0c-0.1-0.4-0.7-0.6-0.7-0.5s0,17.2,0,17.2h6c0,0,0-17,0-17.1
	S26.3,42.9,26.3,43.1z"/>
<path class="st2" d="M26.5,35.8c-0.6,0-1-0.4-1-1c0-5,4-9,9-9c0.6,0,1,0.4,1,1s-0.4,1-1,1c-3.9,0-7,3.1-7,7
	C27.5,35.3,27.1,35.8,26.5,35.8z"/>
<path class="st2" d="M20.5,38.8c-0.6,0-1-0.4-1-1c0-3.9-3.1-7-7-7c-0.6,0-1-0.4-1-1s0.4-1,1-1c5,0,9,4,9,9
	C21.5,38.3,21.1,38.8,20.5,38.8z"/>
<path class="st2" d="M22.5,27.8c-0.6,0-1-0.4-1-1c0-3.9-3.1-7-7-7c-0.6,0-1-0.4-1-1s0.4-1,1-1c5,0,9,4,9,9
	C23.5,27.3,23.1,27.8,22.5,27.8z"/>
<path class="st2" d="M23.5,19.8c-0.6,0-1-0.4-1-1c0-5,4-9,9-9c0.6,0,1,0.4,1,1s-0.4,1-1,1c-3.9,0-7,3.1-7,7
	C24.5,19.3,24.1,19.8,23.5,19.8z"/>
<path class="st2" d="M38.5,19.8c-2.2,0-4-1.8-4-4c0-0.6,0.4-1,1-1s1,0.4,1,1c0,1.1,0.9,2,2,2c0.6,0,1,0.4,1,1S39.1,19.8,38.5,19.8z"
	/>
<path class="st2" d="M29.5,23.8c-0.6,0-1-0.4-1-1c0-2.2,1.8-4,4-4c0.6,0,1,0.4,1,1s-0.4,1-1,1c-1.1,0-2,0.9-2,2
	C30.5,23.3,30.1,23.8,29.5,23.8z"/>
<path class="st2" d="M20.5,12.8c-2.2,0-4-1.8-4-4c0-0.6,0.4-1,1-1s1,0.4,1,1c0,1.1,0.9,2,2,2c0.6,0,1,0.4,1,1S21.1,12.8,20.5,12.8z"
	/>
<path class="st2" d="M9.5,25.8c-0.6,0-1-0.4-1-1s0.4-1,1-1c1.1,0,2-0.9,2-2c0-0.6,0.4-1,1-1s1,0.4,1,1C13.5,24,11.7,25.8,9.5,25.8z"
	/>
<path class="st2" d="M33.5,35.8c-0.6,0-1-0.4-1-1c0-2.2,1.8-4,4-4c0.6,0,1,0.4,1,1c0,0.6-0.4,1-1,1c-1.1,0-2,0.9-2,2
	C34.5,35.3,34.1,35.8,33.5,35.8z"/>
<path class="st3" d="M17.5,60.8c-0.6,0-1-0.4-1-1v-1c0-0.6,0.4-1,1-1s1,0.4,1,1v1C18.5,60.3,18.1,60.8,17.5,60.8z"/>
<path class="st3" d="M14.5,60.8c-0.6,0-1-0.4-1-1v-1c0-0.6,0.4-1,1-1s1,0.4,1,1v1C15.5,60.3,15.1,60.8,14.5,60.8z"/>
<path class="st3" d="M11.5,60.8c-0.6,0-1-0.4-1-1v-1c0-0.6,0.4-1,1-1s1,0.4,1,1v1C12.5,60.3,12.1,60.8,11.5,60.8z"/>
<path class="st3" d="M8.5,60.8c-0.6,0-1-0.4-1-1v-1c0-0.6,0.4-1,1-1s1,0.4,1,1v1C9.5,60.3,9.1,60.8,8.5,60.8z"/>
<path class="st3" d="M5.5,60.8c-0.6,0-1-0.4-1-1v-1c0-0.6,0.4-1,1-1s1,0.4,1,1v1C6.5,60.3,6.1,60.8,5.5,60.8z"/>
<path class="st3" d="M35.5,60.8c-0.6,0-1-0.4-1-1v-1c0-0.6,0.4-1,1-1s1,0.4,1,1v1C36.5,60.3,36.1,60.8,35.5,60.8z"/>
<path class="st3" d="M32.5,60.8c-0.6,0-1-0.4-1-1v-1c0-0.6,0.4-1,1-1s1,0.4,1,1v1C33.5,60.3,33.1,60.8,32.5,60.8z"/>
<path class="st3" d="M29.5,60.8c-0.6,0-1-0.4-1-1v-1c0-0.6,0.4-1,1-1s1,0.4,1,1v1C30.5,60.3,30.1,60.8,29.5,60.8z"/>
<path class="st3" d="M44.5,60.8c-0.6,0-1-0.4-1-1v-1c0-0.6,0.4-1,1-1s1,0.4,1,1v1C45.5,60.3,45.1,60.8,44.5,60.8z"/>
<path class="st3" d="M41.5,60.8c-0.6,0-1-0.4-1-1v-1c0-0.6,0.4-1,1-1s1,0.4,1,1v1C42.5,60.3,42.1,60.8,41.5,60.8z"/>
<path class="st3" d="M38.5,60.8c-0.6,0-1-0.4-1-1v-1c0-0.6,0.4-1,1-1s1,0.4,1,1v1C39.5,60.3,39.1,60.8,38.5,60.8z"/>
<path class="st3" d="M53.5,60.8c-0.6,0-1-0.4-1-1v-1c0-0.6,0.4-1,1-1s1,0.4,1,1v1C54.5,60.3,54.1,60.8,53.5,60.8z"/>
<path class="st3" d="M50.5,60.8c-0.6,0-1-0.4-1-1v-1c0-0.6,0.4-1,1-1s1,0.4,1,1v1C51.5,60.3,51.1,60.8,50.5,60.8z"/>
<path class="st3" d="M47.5,60.8c-0.6,0-1-0.4-1-1v-1c0-0.6,0.4-1,1-1s1,0.4,1,1v1C48.5,60.3,48.1,60.8,47.5,60.8z"/>
<path class="st4" d="M52.5,13.8c0-3.3,2.7-6,6-6"/>
<path class="st4" d="M52.5,13.8c0-2.8-2.2-5-5-5"/>
</svg>
